<?xml version="1.0" standalone="no"?><!DOCTYPE svg PUBLIC "-//W3C//DTD SVG 1.1//EN" "http://www.w3.org/Graphics/SVG/1.1/DTD/svg11.dtd"><svg t="1738856129494" class="icon" viewBox="0 0 1024 1024" version="1.1" xmlns="http://www.w3.org/2000/svg" p-id="4181" xmlns:xlink="http://www.w3.org/1999/xlink" width="200" height="200"><path d="M803.799609 487.139556a192.113778 192.113778 0 0 0-107.463111-335.644445 36.579556 36.579556 0 1 0-7.395556 72.760889 119.466667 119.466667 0 0 1 1.251556 237.681778 36.010667 36.010667 0 0 0-28.444445 21.617778 35.043556 35.043556 0 0 0-2.673777 10.069333 31.175111 31.175111 0 0 0-1.024 3.811555c0 1.024 0.398222 1.877333 0.398222 2.901334v1.763555c0 0.625778 0.625778 1.649778 0.796444 2.503111a36.067556 36.067556 0 0 0 33.450667 31.345778 276.252444 276.252444 0 0 1 258.901333 252.188445 36.579556 36.579556 0 0 0 36.408889 33.564444h3.072a36.579556 36.579556 0 0 0 33.450667-39.480889 349.866667 349.866667 0 0 0-220.216889-295.196444z" fill="#FD7733" p-id="4182"></path><path d="M539.721387 505.856a220.16 220.16 0 1 0-274.545778 0 405.959111 405.959111 0 0 0-264.874667 345.372444 36.579556 36.579556 0 0 0 33.450667 39.480889 36.181333 36.181333 0 0 0 39.480889-33.450666 330.410667 330.410667 0 0 1 658.545778 0 36.579556 36.579556 0 0 0 36.408888 33.564444h3.072a36.579556 36.579556 0 0 0 33.450667-39.480889 405.902222 405.902222 0 0 0-264.988444-345.486222z m-284.444445-171.861333a147.057778 147.057778 0 1 1 147.057778 147.057777 147.228444 147.228444 0 0 1-146.944-147.114666z" fill="#0A71EF" p-id="4183"></path><path d="M250.612053 721.009778m34.133334 0l227.555555 0q34.133333 0 34.133334 34.133333l0-0.056889q0 34.133333-34.133334 34.133334l-227.555555 0q-34.133333 0-34.133334-34.133334l0 0.056889q0-34.133333 34.133334-34.133333Z" fill="#89BAF7" p-id="4184"></path></svg>